PathFileType	4	(X/Y/Z)	\\147.46.242.158\로컬 디스크 (e)\MOCAP Data\Iguana Capture\iguana\Project 2\Capture day 6 after broken\Session 1\Take06.trc
DataRate	CameraRate	NumFrames	NumMarkers	Units	OrigDataRate	OrigDataStartFrame	OrigNumFrames
120.0	120.0	10	23	mm	120.0	89	8064
Frame#	Time	ana:head1			ana:head2			ana:bone1			ana:bone2			ana:bone3			ana:tail1			ana:tail2			ana:tail3			ana:tail4			ana:Rforefoot1			ana:Rforefoot2			ana:Rforefoot3			ana:Lforefoot1			ana:Lforefoot2			ana:Lforefoot3			ana:RhindLeg1			ana:RhindLeg2			ana:RhindLeg3			ana:RhindLeg4			ana:LhindLeg1			ana:LhindLeg2			ana:LhindLeg3			ana:LhindLeg4			
		X1	Y1	Z1	X2	Y2	Z2	X3	Y3	Z3	X4	Y4	Z4	X5	Y5	Z5	X6	Y6	Z6	X7	Y7	Z7	X8	Y8	Z8	X9	Y9	Z9	X10	Y10	Z10	X11	Y11	Z11	X12	Y12	Z12	X13	Y13	Z13	X14	Y14	Z14	X15	Y15	Z15	X16	Y16	Z16	X17	Y17	Z17	X18	Y18	Z18	X19	Y19	Z19	X20	Y20	Z20	X21	Y21	Z21	X22	Y22	Z22	X23	Y23	Z23	

6044	50.358	94.93462	-400.80673	68.14109	103.13053	-395.99344	70.76312	120.75755	-380.69843	62.76640	140.22202	-360.03421	58.82215	161.31360	-336.14572	42.59288	180.80238	-313.15179	31.71540	204.38562	-282.24539	21.33860	215.28464	-246.23691	13.01431	212.74850	-212.71274	7.80199	106.38709	-377.37866	42.85740	106.13195	-370.08713	28.20165	97.51208	-372.44287	11.48231	120.17917	-392.35822	38.44995	122.94131	-392.59012	25.18866	111.61362	-385.32611	12.00030	152.57883	-331.17310	33.31704	136.74728	-330.39297	26.89604	144.54660	-323.81204	9.66374	133.48927	-324.63315	6.16851	170.48949	-344.13580	34.55014	179.69153	-356.92490	24.82495	187.87686	-363.11063	7.77548	187.55679	-376.08975	4.60892	
6045	50.367	94.65655	-400.91956	68.34645	102.84342	-395.84436	70.64338	120.48458	-380.58734	62.71682	140.10075	-360.04263	58.87944	161.26743	-336.22772	42.75028	180.67413	-313.15482	31.94186	204.49332	-282.19324	21.51043	215.29790	-246.23285	13.02453	212.72162	-212.98500	7.85615	106.27211	-377.31064	42.80430	106.15743	-370.02078	28.15576	97.50265	-372.40009	11.47979	120.06116	-392.18323	38.45787	123.18396	-391.86279	24.95153	111.67682	-385.19223	11.94040	152.80673	-330.88461	33.23550	136.37233	-330.69501	27.05186	144.55576	-323.83090	9.66775	133.46246	-324.61749	6.17311	170.49611	-344.13763	34.58682	179.68446	-357.15781	24.97634	187.91039	-363.12711	7.84236	187.53835	-376.08856	4.60931	
6046	50.375	94.40864	-400.75433	68.32645	102.53041	-395.75995	70.64995	120.21497	-380.47168	62.70218	140.07574	-360.13263	59.14769	161.27324	-336.15961	43.09858	180.59840	-313.17886	32.08920	204.59006	-282.02286	21.62084	215.30460	-246.25821	13.03127	212.76521	-213.06218	7.81070	106.14011	-377.18076	42.72425	106.19076	-369.94595	28.10761	97.59138	-372.35934	11.41417	119.94582	-392.05746	38.46754	123.46206	-391.20721	24.52013	111.67666	-385.26648	12.05100	152.75902	-330.94754	33.22581	136.37177	-330.70898	27.04351	144.50293	-323.82608	9.68323	133.47253	-324.64816	6.17459	170.41472	-344.16299	34.59294	179.57372	-357.31161	25.25397	187.90051	-363.10626	7.87842	187.53537	-376.09253	4.60820	
6047	50.383	94.08588	-400.29547	68.08296	102.11446	-395.76822	70.59697	119.91253	-380.32678	62.71884	139.92096	-360.21555	59.38429	161.25056	-336.16504	43.25513	180.61795	-313.28329	32.24977	204.57745	-281.90146	21.76101	215.32625	-246.30783	13.03284	212.79938	-213.14143	7.70511	106.11507	-377.02579	42.45110	106.17516	-369.88986	28.09515	97.70556	-372.31912	11.35104	119.75274	-392.09555	38.58589	124.05813	-390.03391	23.46278	111.51890	-385.52182	12.23205	152.39894	-331.44073	33.46914	137.14267	-330.28546	26.60651	144.63405	-323.89679	9.61498	133.47597	-324.66446	6.16604	170.32555	-344.21143	34.65354	179.51631	-357.37350	25.39061	187.87949	-363.07794	7.88574	187.53366	-376.10416	4.61136	
6048	50.392	93.62842	-400.17969	68.09685	101.65630	-395.70877	70.64124	119.65041	-380.13406	62.77856	139.70419	-360.18762	59.45145	161.22151	-336.21161	43.31718	180.55869	-313.31311	32.36523	204.50787	-281.90546	21.97699	215.36307	-246.33630	13.10237	212.76353	-213.19043	7.66728	105.92396	-376.91406	42.21004	106.15203	-369.84305	28.07821	97.78728	-372.31418	11.30589	119.53783	-392.36823	38.86220	124.09982	-389.91669	23.29653	111.03727	-386.02750	12.68987	152.24066	-331.66736	33.57835	137.61066	-330.16599	26.26914	144.85992	-324.04697	9.49126	133.45027	-324.67276	6.17059	170.25363	-344.31705	34.79664	179.46579	-357.38824	25.44288	187.88335	-363.06409	7.87845	187.58331	-376.16577	4.69845	
6049	50.400	93.13145	-400.34457	68.39099	101.32999	-395.48761	70.73227	119.32616	-379.96609	62.86742	139.52122	-360.11942	59.40049	161.16084	-336.11145	43.25967	180.52498	-313.23016	32.47039	204.39964	-282.02188	22.37988	215.54645	-246.42720	13.37958	212.86157	-213.22853	7.71134	105.68093	-376.76721	42.18535	106.10545	-369.76074	28.05005	97.86473	-372.30585	11.27403	119.25053	-392.48947	38.88486	123.62037	-390.86639	23.96910	110.83829	-386.20920	12.87955	152.17445	-331.73743	33.60480	137.20775	-330.33939	26.64683	144.37447	-323.94653	9.68503	133.43732	-324.68845	6.18049	170.21635	-344.35934	34.83743	179.41080	-357.39490	25.49095	187.88768	-363.07047	7.87773	187.63881	-376.27097	4.84206	
6050	50.408	92.75645	-400.26849	68.61419	101.06087	-395.18262	70.84013	119.05259	-379.87354	62.92041	139.42314	-360.18497	59.49616	161.05534	-336.16229	43.31031	180.65881	-313.00839	32.60775	204.43994	-282.38120	23.06161	216.11572	-246.72972	13.98884	213.40808	-213.50627	7.91134	105.65833	-376.41699	42.07652	106.00598	-369.65036	27.97030	97.99095	-372.29291	11.19599	118.95286	-392.46942	38.81123	123.06116	-392.21982	25.61752	110.89197	-386.13904	12.86334	152.14021	-331.79660	33.65413	137.03696	-330.45459	26.80537	144.11871	-323.90170	9.79269	133.41568	-324.69553	6.17970	170.18152	-344.43268	34.90248	179.35298	-357.41745	25.58102	187.81900	-363.11240	8.02534	187.57343	-376.15594	4.69115	
6051	50.417	92.33572	-399.96774	68.58736	100.82734	-394.79865	70.90227	118.86051	-379.74420	62.83759	139.37909	-360.14578	59.54994	160.94725	-336.39548	43.48278	180.65540	-313.12735	32.94953	204.91304	-282.85950	23.90034	217.19810	-247.15843	14.76848	214.46909	-214.07278	8.26885	106.25338	-375.85748	41.51801	105.88840	-369.48178	27.89978	98.07777	-372.32898	10.98116	118.59501	-392.38968	38.69313	122.75408	-393.35718	27.28474	111.02625	-385.93011	12.78668	152.13019	-331.88235	33.73277	137.00117	-330.56088	26.67571	144.15094	-323.97708	9.80550	133.40488	-324.71750	6.18154	170.16797	-344.46277	34.98006	179.30925	-357.45551	25.63779	187.81064	-363.14343	8.15171	187.53564	-376.08887	4.61011	
6052	50.425	91.94848	-399.61319	68.51396	100.43272	-394.45117	70.97168	118.68119	-379.56479	62.67155	139.32162	-360.02249	59.61043	160.80582	-336.79712	43.76823	180.58585	-313.46176	33.38773	205.62823	-283.24384	24.65488	218.81827	-247.86354	15.72729	216.22269	-214.85635	8.60023	106.45268	-375.60809	41.19955	105.89138	-369.25943	27.78915	98.02392	-372.26266	10.90270	118.29790	-392.25803	38.65534	122.55959	-391.80756	25.91190	110.84855	-386.02139	13.02381	151.98735	-331.99991	34.02169	136.95131	-330.74261	26.35064	144.22612	-324.06702	9.78666	133.41312	-324.72708	6.18938	170.14705	-344.48303	35.08619	179.29951	-357.55527	25.69770	187.88707	-363.08737	8.20000	187.53749	-376.09082	4.61676	
6053	50.433	91.60609	-399.28024	68.59917	99.94422	-394.14624	70.94432	118.37914	-379.18216	62.73137	139.08780	-360.47702	59.81163	160.99753	-336.61819	43.80066	180.85991	-313.71017	33.93296	206.58124	-283.92880	25.62821	221.03513	-248.92517	16.85408	218.95082	-216.00735	8.96135	105.45889	-375.53513	41.72169	105.97656	-368.95950	27.63323	97.90956	-372.17166	10.94409	118.04985	-392.09940	38.75556	122.43071	-390.91208	24.82862	110.72665	-386.21970	13.10288	151.84381	-332.16318	34.44897	137.03951	-330.82285	26.35171	144.29834	-324.09036	9.75361	133.40538	-324.72488	6.20524	170.14171	-344.58456	35.33049	179.27861	-357.67349	25.81352	187.84239	-363.31958	8.43642	187.53795	-376.10602	4.62958	
